<svg id="b28fda71-e38e-4130-9cae-c71870882676" data-name="Layer 1" xmlns="http://www.w3.org/2000/svg" width="361.30957" height="268.64746" viewBox="0 0 361.30957 268.64746"><defs><style>.a29affed-5457-4aaa-a1ed-2adebe621a9d{fill:#1e1e30;}</style></defs><title>cody-logo</title><path class="a29affed-5457-4aaa-a1ed-2adebe621a9d" d="M28.5415,102.1709A47.70648,47.70648,0,0,1,9.84326,84.43506,48.85927,48.85927,0,0,1,3.0376,58.794,48.86545,48.86545,0,0,1,9.84326,33.15283,47.70993,47.70993,0,0,1,28.5415,15.417,55.56587,55.56587,0,0,1,55.28223,9.02393a56.10351,56.10351,0,0,1,22.6167,4.3999A45.32186,45.32186,0,0,1,94.87842,26.07227L80.57959,39.271Q70.81641,27.999,56.38232,27.99707a32.12433,32.12433,0,0,0-15.94824,3.91846A27.85262,27.85262,0,0,0,29.50391,42.8457,32.13089,32.13089,0,0,0,25.58545,58.794a32.12564,32.12564,0,0,0,3.91846,15.94824A27.85262,27.85262,0,0,0,40.43408,85.67236a32.12433,32.12433,0,0,0,15.94824,3.91846q14.436,0,24.19727-11.41113L94.87842,91.37793a44.57794,44.57794,0,0,1-17.04834,12.78662A56.60783,56.60783,0,0,1,55.145,108.564,55.26845,55.26845,0,0,1,28.5415,102.1709Z" transform="translate(-3.0376 -4.89941)"/><path class="a29affed-5457-4aaa-a1ed-2adebe621a9d" d="M119.96826,103.1333a36.26961,36.26961,0,0,1-14.50488-13.54248,37.29794,37.29794,0,0,1-5.22461-19.66064A37.30232,37.30232,0,0,1,105.46338,50.27a36.28306,36.28306,0,0,1,14.50488-13.54248,44.3659,44.3659,0,0,1,20.96631-4.88086,43.96716,43.96716,0,0,1,20.89795,4.88086A36.41886,36.41886,0,0,1,176.26855,50.27a37.32025,37.32025,0,0,1,5.22461,19.66016,37.31587,37.31587,0,0,1-5.22461,19.66064,36.40525,36.40525,0,0,1-14.436,13.54248,43.94424,43.94424,0,0,1-20.89795,4.88086A44.34269,44.34269,0,0,1,119.96826,103.1333Zm34.50879-18.28564q5.291-5.56862,5.29346-14.91748,0-9.34791-5.29346-14.917a17.864,17.864,0,0,0-13.54248-5.56836,18.08377,18.08377,0,0,0-13.61084,5.56836q-5.36206,5.56788-5.36182,14.917,0,9.35156,5.36182,14.91748a18.08517,18.08517,0,0,0,13.61084,5.56787A17.86532,17.86532,0,0,0,154.47705,84.84766Z" transform="translate(-3.0376 -4.89941)"/><path class="a29affed-5457-4aaa-a1ed-2adebe621a9d" d="M271.1333,4.89941V106.91406H250.648V98.39014q-7.97535,9.62475-23.09766,9.624a38.39793,38.39793,0,0,1-18.90429-4.6748,33.45821,33.45821,0,0,1-13.26758-13.33594,40.6325,40.6325,0,0,1-4.812-20.07324,40.63847,40.63847,0,0,1,4.812-20.07276A33.47052,33.47052,0,0,1,208.646,36.52148a38.41893,38.41893,0,0,1,18.90429-4.6748q14.15919,0,22.13526,8.93652V4.89941ZM244.73584,84.84766q5.36207-5.56862,5.3623-14.91748,0-9.34791-5.3623-14.917a19.25122,19.25122,0,0,0-27.08447,0q-5.36206,5.56788-5.36182,14.917,0,9.35156,5.36182,14.91748a19.25242,19.25242,0,0,0,27.08447,0Z" transform="translate(-3.0376 -4.89941)"/><path class="a29affed-5457-4aaa-a1ed-2adebe621a9d" d="M364.34717,32.94678,330.938,111.45117q-5.08813,12.78589-12.57959,18.01074-7.49561,5.22291-18.07959,5.22413a37.592,37.592,0,0,1-11.41113-1.78711,25.19871,25.19871,0,0,1-9.21192-4.94971l7.83692-15.26074a18.43311,18.43311,0,0,0,5.70556,3.437,17.765,17.765,0,0,0,6.39307,1.2373,11.34991,11.34991,0,0,0,7.14941-2.13086,18.1124,18.1124,0,0,0,4.94922-7.08056l.2749-.6875L279.93066,32.94678h22.13526l20.76074,50.18213,20.89746-50.18213Z" transform="translate(-3.0376 -4.89941)"/><path class="a29affed-5457-4aaa-a1ed-2adebe621a9d" d="M47.30811,267.1543A47.70531,47.70531,0,0,1,28.60986,249.419a51.70669,51.70669,0,0,1,0-51.28272,47.71,47.71,0,0,1,18.69825-17.73584,55.5658,55.5658,0,0,1,26.74072-6.39307,56.10351,56.10351,0,0,1,22.6167,4.39991A45.32194,45.32194,0,0,1,113.645,191.05566L99.34619,204.25439q-9.76319-11.272-24.19726-11.27392a32.12434,32.12434,0,0,0-15.94825,3.91846A27.85262,27.85262,0,0,0,48.27051,207.8291a34.41414,34.41414,0,0,0,0,31.89649,27.85385,27.85385,0,0,0,10.93017,10.93066,32.12419,32.12419,0,0,0,15.94825,3.918q14.436,0,24.19726-11.41113L113.645,256.36133a44.567,44.567,0,0,1-17.04834,12.78613,56.59945,56.59945,0,0,1-22.68506,4.39942A55.27365,55.27365,0,0,1,47.30811,267.1543Z" transform="translate(-3.0376 -4.89941)"/><path class="a29affed-5457-4aaa-a1ed-2adebe621a9d" d="M194.27881,205.0791q8.45508,8.24926,8.45508,24.47266v42.3457H181.28613v-39.0459q0-8.79639-3.84961-13.12988-3.85034-4.33155-11.13623-4.33106-8.11377,0-12.92383,5.01856-4.81421,5.02-4.812,14.917v36.57129H127.1167V169.88281h21.44775v35.74658a28.52623,28.52623,0,0,1,10.31153-6.53076,37.29981,37.29981,0,0,1,13.19873-2.26855Q185.8208,196.83008,194.27881,205.0791Z" transform="translate(-3.0376 -4.89941)"/><path class="a29affed-5457-4aaa-a1ed-2adebe621a9d" d="M237.17285,268.11621a36.26508,36.26508,0,0,1-14.50488-13.542,39.60371,39.60371,0,0,1,0-39.3208,36.283,36.283,0,0,1,14.50488-13.54248,47.32525,47.32525,0,0,1,41.86426,0,36.41879,36.41879,0,0,1,14.436,13.54248,39.60371,39.60371,0,0,1,0,39.3208,36.40066,36.40066,0,0,1-14.436,13.542,47.32525,47.32525,0,0,1-41.86426,0Zm34.50879-18.28516q5.291-5.56787,5.29346-14.917,0-9.34863-5.29346-14.918a17.86532,17.86532,0,0,0-13.54248-5.56787,18.08517,18.08517,0,0,0-13.61084,5.56787q-5.36207,5.56933-5.36182,14.918,0,9.3501,5.36182,14.917a18.08553,18.08553,0,0,0,13.61084,5.56836A17.86567,17.86567,0,0,0,271.68164,249.83105Z" transform="translate(-3.0376 -4.89941)"/><path class="a29affed-5457-4aaa-a1ed-2adebe621a9d" d="M314.09619,184.18164a11.64252,11.64252,0,0,1,0-17.04834,13.60741,13.60741,0,0,1,9.624-3.437,13.9485,13.9485,0,0,1,9.624,3.29932,10.58035,10.58035,0,0,1,3.71191,8.24951,11.67545,11.67545,0,0,1-3.71191,8.86767,13.44894,13.44894,0,0,1-9.624,3.50586A13.59873,13.59873,0,0,1,314.09619,184.18164Zm-1.1001,13.74854h21.44776v73.96728H312.99609Z" transform="translate(-3.0376 -4.89941)"/></svg>